<svg id="visual" viewBox="0 0 900 600" width="900" height="600" xmlns="http://www.w3.org/2000/svg" xmlns:xlink="http://www.w3.org/1999/xlink" version="1.1"><g stroke-width="1" stroke-linejoin="bevel"><path d="M463 308L402 334L529 383Z" fill="#cbb134" stroke="#cbb134"></path><path d="M402 334L378 390L529 383Z" fill="#86ac46" stroke="#86ac46"></path><path d="M508 525L565 413L529 383Z" fill="#b4b037" stroke="#b4b037"></path><path d="M529 383L615 314L463 308Z" fill="#449f62" stroke="#449f62"></path><path d="M378 390L412 496L529 383Z" fill="#5aa459" stroke="#5aa459"></path><path d="M412 496L508 525L529 383Z" fill="#86ac46" stroke="#86ac46"></path><path d="M264 274L301 412L378 390Z" fill="#009473" stroke="#009473"></path><path d="M378 390L334 482L412 496Z" fill="#e4b135" stroke="#e4b135"></path><path d="M301 412L334 482L378 390Z" fill="#70a84f" stroke="#70a84f"></path><path d="M412 496L427 600L508 525Z" fill="#009473" stroke="#009473"></path><path d="M565 413L615 314L529 383Z" fill="#e4b135" stroke="#e4b135"></path><path d="M508 525L560 525L565 413Z" fill="#2a9a6b" stroke="#2a9a6b"></path><path d="M565 413L738 398L615 314Z" fill="#009473" stroke="#009473"></path><path d="M587 192L474 189L463 308Z" fill="#70a84f" stroke="#70a84f"></path><path d="M463 308L412 187L402 334Z" fill="#e4b135" stroke="#e4b135"></path><path d="M402 334L264 274L378 390Z" fill="#fcaf3c" stroke="#fcaf3c"></path><path d="M474 189L412 187L463 308Z" fill="#e4b135" stroke="#e4b135"></path><path d="M412 187L264 274L402 334Z" fill="#e4b135" stroke="#e4b135"></path><path d="M334 482L427 600L412 496Z" fill="#70a84f" stroke="#70a84f"></path><path d="M508 525L514 600L560 525Z" fill="#cbb134" stroke="#cbb134"></path><path d="M427 600L514 600L508 525Z" fill="#2a9a6b" stroke="#2a9a6b"></path><path d="M615 314L587 192L463 308Z" fill="#2a9a6b" stroke="#2a9a6b"></path><path d="M474 189L394 93L412 187Z" fill="#e4b135" stroke="#e4b135"></path><path d="M616 600L668 501L560 525Z" fill="#b4b037" stroke="#b4b037"></path><path d="M560 525L668 501L565 413Z" fill="#2a9a6b" stroke="#2a9a6b"></path><path d="M615 314L702 185L587 192Z" fill="#5aa459" stroke="#5aa459"></path><path d="M412 187L275 194L264 274Z" fill="#009473" stroke="#009473"></path><path d="M264 274L196 418L301 412Z" fill="#70a84f" stroke="#70a84f"></path><path d="M301 412L196 418L334 482Z" fill="#fcaf3c" stroke="#fcaf3c"></path><path d="M334 482L281 600L427 600Z" fill="#86ac46" stroke="#86ac46"></path><path d="M167 274L196 418L264 274Z" fill="#9caf3d" stroke="#9caf3d"></path><path d="M514 600L616 600L560 525Z" fill="#009473" stroke="#009473"></path><path d="M787 399L738 398L813 486Z" fill="#009473" stroke="#009473"></path><path d="M668 501L738 398L565 413Z" fill="#86ac46" stroke="#86ac46"></path><path d="M165 484L281 600L334 482Z" fill="#b4b037" stroke="#b4b037"></path><path d="M738 398L728 277L615 314Z" fill="#86ac46" stroke="#86ac46"></path><path d="M412 187L394 93L275 194Z" fill="#fcaf3c" stroke="#fcaf3c"></path><path d="M520 85L394 93L474 189Z" fill="#9caf3d" stroke="#9caf3d"></path><path d="M612 113L520 85L587 192Z" fill="#5aa459" stroke="#5aa459"></path><path d="M587 192L520 85L474 189Z" fill="#009473" stroke="#009473"></path><path d="M702 185L612 113L587 192Z" fill="#86ac46" stroke="#86ac46"></path><path d="M174 235L264 274L275 194Z" fill="#449f62" stroke="#449f62"></path><path d="M174 235L167 274L264 274Z" fill="#2a9a6b" stroke="#2a9a6b"></path><path d="M81 392L165 484L196 418Z" fill="#86ac46" stroke="#86ac46"></path><path d="M196 418L165 484L334 482Z" fill="#cbb134" stroke="#cbb134"></path><path d="M728 277L702 185L615 314Z" fill="#fcaf3c" stroke="#fcaf3c"></path><path d="M188 87L174 235L275 194Z" fill="#449f62" stroke="#449f62"></path><path d="M813 486L738 398L668 501Z" fill="#9caf3d" stroke="#9caf3d"></path><path d="M738 398L776 279L728 277Z" fill="#5aa459" stroke="#5aa459"></path><path d="M728 277L776 279L702 185Z" fill="#b4b037" stroke="#b4b037"></path><path d="M787 399L776 279L738 398Z" fill="#86ac46" stroke="#86ac46"></path><path d="M369 0L274 97L394 93Z" fill="#cbb134" stroke="#cbb134"></path><path d="M394 93L274 97L275 194Z" fill="#9caf3d" stroke="#9caf3d"></path><path d="M616 600L713 600L668 501Z" fill="#cbb134" stroke="#cbb134"></path><path d="M165 484L191 600L281 600Z" fill="#449f62" stroke="#449f62"></path><path d="M713 600L813 486L668 501Z" fill="#86ac46" stroke="#86ac46"></path><path d="M900 339L827 189L776 279Z" fill="#cbb134" stroke="#cbb134"></path><path d="M167 274L81 392L196 418Z" fill="#fcaf3c" stroke="#fcaf3c"></path><path d="M165 484L109 539L191 600Z" fill="#9caf3d" stroke="#9caf3d"></path><path d="M97 261L81 392L167 274Z" fill="#5aa459" stroke="#5aa459"></path><path d="M85 216L97 261L174 235Z" fill="#2a9a6b" stroke="#2a9a6b"></path><path d="M174 235L97 261L167 274Z" fill="#9caf3d" stroke="#9caf3d"></path><path d="M81 392L109 539L165 484Z" fill="#86ac46" stroke="#86ac46"></path><path d="M578 0L511 0L520 85Z" fill="#86ac46" stroke="#86ac46"></path><path d="M520 85L511 0L394 93Z" fill="#e4b135" stroke="#e4b135"></path><path d="M578 0L520 85L612 113Z" fill="#70a84f" stroke="#70a84f"></path><path d="M511 0L369 0L394 93Z" fill="#9caf3d" stroke="#9caf3d"></path><path d="M274 97L188 87L275 194Z" fill="#2a9a6b" stroke="#2a9a6b"></path><path d="M827 189L738 108L702 185Z" fill="#cbb134" stroke="#cbb134"></path><path d="M702 185L738 108L612 113Z" fill="#86ac46" stroke="#86ac46"></path><path d="M222 0L188 87L274 97Z" fill="#e4b135" stroke="#e4b135"></path><path d="M674 0L578 0L612 113Z" fill="#009473" stroke="#009473"></path><path d="M188 87L85 216L174 235Z" fill="#2a9a6b" stroke="#2a9a6b"></path><path d="M0 329L0 406L81 392Z" fill="#449f62" stroke="#449f62"></path><path d="M713 600L807 600L813 486Z" fill="#70a84f" stroke="#70a84f"></path><path d="M776 279L827 189L702 185Z" fill="#fcaf3c" stroke="#fcaf3c"></path><path d="M900 339L776 279L787 399Z" fill="#86ac46" stroke="#86ac46"></path><path d="M369 0L279 0L274 97Z" fill="#009473" stroke="#009473"></path><path d="M0 600L96 600L109 539Z" fill="#5aa459" stroke="#5aa459"></path><path d="M109 539L96 600L191 600Z" fill="#e4b135" stroke="#e4b135"></path><path d="M795 0L674 0L738 108Z" fill="#009473" stroke="#009473"></path><path d="M738 108L674 0L612 113Z" fill="#009473" stroke="#009473"></path><path d="M827 189L814 116L738 108Z" fill="#cbb134" stroke="#cbb134"></path><path d="M900 461L900 413L813 486Z" fill="#fcaf3c" stroke="#fcaf3c"></path><path d="M813 486L900 413L787 399Z" fill="#9caf3d" stroke="#9caf3d"></path><path d="M827 189L900 177L814 116Z" fill="#fcaf3c" stroke="#fcaf3c"></path><path d="M900 413L900 339L787 399Z" fill="#e4b135" stroke="#e4b135"></path><path d="M279 0L222 0L274 97Z" fill="#9caf3d" stroke="#9caf3d"></path><path d="M188 87L139 61L85 216Z" fill="#e4b135" stroke="#e4b135"></path><path d="M900 600L900 461L813 486Z" fill="#cbb134" stroke="#cbb134"></path><path d="M222 0L139 61L188 87Z" fill="#86ac46" stroke="#86ac46"></path><path d="M0 329L81 392L97 261Z" fill="#b4b037" stroke="#b4b037"></path><path d="M81 392L0 471L109 539Z" fill="#e4b135" stroke="#e4b135"></path><path d="M0 329L97 261L0 219Z" fill="#fcaf3c" stroke="#fcaf3c"></path><path d="M0 219L97 261L85 216Z" fill="#cbb134" stroke="#cbb134"></path><path d="M0 406L0 471L81 392Z" fill="#e4b135" stroke="#e4b135"></path><path d="M0 135L0 219L85 216Z" fill="#70a84f" stroke="#70a84f"></path><path d="M900 339L900 177L827 189Z" fill="#fcaf3c" stroke="#fcaf3c"></path><path d="M814 116L795 0L738 108Z" fill="#b4b037" stroke="#b4b037"></path><path d="M807 600L900 600L813 486Z" fill="#9caf3d" stroke="#9caf3d"></path><path d="M0 471L0 600L109 539Z" fill="#449f62" stroke="#449f62"></path><path d="M900 70L795 0L814 116Z" fill="#cbb134" stroke="#cbb134"></path><path d="M139 61L0 135L85 216Z" fill="#86ac46" stroke="#86ac46"></path><path d="M91 0L0 135L139 61Z" fill="#449f62" stroke="#449f62"></path><path d="M222 0L91 0L139 61Z" fill="#86ac46" stroke="#86ac46"></path><path d="M900 177L900 70L814 116Z" fill="#fcaf3c" stroke="#fcaf3c"></path><path d="M900 70L900 0L795 0Z" fill="#fcaf3c" stroke="#fcaf3c"></path><path d="M91 0L0 0L0 135Z" fill="#cbb134" stroke="#cbb134"></path></g></svg>